<?xml version="1.0" encoding="UTF-8"?>
<svg id="Layer_1" xmlns="http://www.w3.org/2000/svg" version="1.1" viewBox="0 0 480 480">
  <!-- Generator: Adobe Illustrator 30.6.0, SVG Export Plug-In . SVG Version: 2.1.4 Build 109)  -->
  <defs>
    <style>
      .st0 {
        fill: #fff;
      }
    </style>
  </defs>
  <path class="st0" d="M370,60H110c-27.6,0-50,22.4-50,50v260c0,27.6,22.4,50,50,50h260c27.6,0,50-22.4,50-50V110c0-27.6-22.4-50-50-50ZM140.6,157.7h198.8c4.3,0,7.9,1.2,10.8,3.3l-100.7,95.4c-2.9,2.7-6.5,5-9.1,5.1-3.2.1-6.8-2.2-9.5-4.8l-101.2-95.7c2.9-2.1,6.6-3.3,10.8-3.3ZM121,304.5l.4-134.4,75.4,71-71.7,71.7c-3-.6-3.9-4.6-4.1-8.2ZM132.9,322.3l72.8-72.8,17.9,17.3c9,8.5,21.8,9.2,31.4,1.2l19.4-18.6,72.5,72.9h-214.1ZM355.7,313.6l-72.5-72.5,75.3-70.9.4,134.4c-.6,2.9-.9,4.4-3.3,9Z"/>
</svg>