<?xml version="1.0" encoding="UTF-8"?>
<svg id="Layer_1" xmlns="http://www.w3.org/2000/svg" version="1.1" viewBox="0 0 480 480">
  <!-- Generator: Adobe Illustrator 30.6.0, SVG Export Plug-In . SVG Version: 2.1.4 Build 109)  -->
  <defs>
    <style>
      .st0 {
        fill: #fff;
      }
    </style>
  </defs>
  <path class="st0" d="M370,60H110c-27.6,0-50,22.4-50,50v260c0,27.6,22.4,50,50,50h260c27.6,0,50-22.4,50-50V110c0-27.6-22.4-50-50-50ZM170,360h-50v-170h50v170ZM144.9,170h-.3c-14.9,0-24.6-11.1-24.6-25s10-25,25.1-25,24.6,10.8,24.9,25c0,13.9-9.6,25-25.1,25ZM310,360v-91c0-22-12.2-37-31.9-37s-23.1,10.1-27.1,19.9c-1.4,3.5-1,13.2-1,18.1v90h-50v-170h50v26.2c7.2-11.2,18.5-26.2,47.4-26.2s62.6,22.5,62.6,72.7v97.3s-50,0-50,0Z"/>
</svg>