<svg width="487" height="167" viewBox="0 0 487 167" fill="none" xmlns="http://www.w3.org/2000/svg">
<path d="M6.20525 71.9025C6.20525 73.0742 6.45256 74.0657 6.9247 74.8543C7.39684 75.643 8.02636 76.319 8.79078 76.8823C9.55519 77.4231 10.3871 77.9188 11.3089 78.3244C12.2306 78.73 13.1075 79.1356 13.9618 79.5187C15.4457 80.2172 16.9071 80.9608 18.3685 81.7494C19.8298 82.5381 21.1563 83.4394 22.3254 84.4759C23.4945 85.5124 24.4388 86.7517 25.1583 88.1713C25.8777 89.5909 26.2374 91.3259 26.2374 93.3539C26.2374 95.3818 25.8103 97.0944 24.9784 98.4689C24.1465 99.8434 23.0449 100.993 21.6959 101.871C20.3469 102.75 18.8406 103.381 17.1769 103.787C15.4907 104.17 13.8269 104.372 12.1407 104.372C11.0391 104.372 9.82498 104.215 8.45353 103.877C7.08208 103.539 5.84553 103.043 4.72139 102.39C4.51904 102.322 4.33918 102.232 4.15932 102.164C3.97946 102.097 3.75463 102.052 3.48483 102.052C3.21504 102.052 2.92276 102.164 2.60801 102.412C2.29325 102.637 2.02345 103.066 1.79862 103.651C1.68621 103.877 1.52883 104.035 1.32649 104.125C1.12414 104.192 0.921795 104.237 0.71945 104.215C0.517104 104.192 0.337242 104.125 0.202345 104.012C0.0674484 103.899 0 103.764 0 103.606C0.112414 102.75 0.224828 101.826 0.314759 100.835C0.40469 99.8434 0.449656 98.8294 0.449656 97.8154C0.449656 96.8014 0.427173 95.7874 0.359725 94.7735C0.292276 93.7595 0.202345 92.7004 0.0449656 91.6188C0 91.3935 0.0899312 91.1907 0.269794 91.033C0.472139 90.8753 0.674484 90.7851 0.921795 90.7626C1.16911 90.7401 1.37145 90.7626 1.59628 90.8753C1.82111 90.9654 1.93352 91.1457 1.97849 91.371C2.20331 92.9708 2.63049 94.4355 3.26001 95.7424C3.88953 97.0493 4.65394 98.1759 5.59822 99.0773C6.5425 100.001 7.59919 100.7 8.79078 101.218C9.98236 101.736 11.2864 101.984 12.6803 101.984C13.737 101.984 14.7262 101.849 15.693 101.556C16.6373 101.263 17.4916 100.835 18.2336 100.271C18.9755 99.7082 19.56 99.0097 19.9872 98.1985C20.4144 97.3873 20.6392 96.4184 20.6392 95.3368C20.6392 93.9397 20.3469 92.7004 19.7399 91.6414C19.1329 90.5823 18.3909 89.681 17.4916 88.9149C16.5923 88.1488 15.6031 87.4953 14.5014 86.932C13.3998 86.3687 12.388 85.8504 11.3988 85.3772C10.1173 84.7914 8.83574 84.183 7.53174 83.5521C6.25022 82.9211 5.1036 82.1775 4.09187 81.2988C3.08014 80.42 2.27076 79.3609 1.64124 78.1441C1.01173 76.9274 0.696967 75.3726 0.696967 73.5474C0.696967 71.7223 1.07917 70.0999 1.84359 68.838C2.60801 67.5762 3.59725 66.5397 4.85629 65.7736C6.11532 65.0074 7.53174 64.4216 9.12802 64.0836C10.7243 63.7231 12.388 63.5653 14.0967 63.5653C15.1984 63.5653 16.1202 63.6329 16.8846 63.7681C17.649 63.9033 18.4809 64.1287 19.4251 64.4441C19.9422 64.6019 20.3469 64.737 20.6842 64.8272C21.0214 64.9173 21.3362 64.9624 21.6509 64.9624C22.1231 64.9624 22.4378 64.7596 22.6402 64.3765C22.7076 64.2188 22.865 64.1061 23.0674 64.0611C23.2697 64.016 23.4945 63.9935 23.6744 63.9935C23.8543 63.9935 24.0341 64.0611 24.1915 64.1287C24.3489 64.1963 24.3938 64.3315 24.3714 64.4892C24.169 65.1877 24.0566 65.8862 23.9892 66.6073C23.9217 67.3283 23.8992 68.0494 23.8992 68.838C23.8992 69.852 23.9667 70.7759 24.0791 71.5871C24.1915 72.3982 24.3039 73.3897 24.3714 74.5163C24.3714 74.629 24.3039 74.7417 24.1465 74.8318C23.9892 74.9219 23.8093 74.9895 23.5845 75.0121C23.3596 75.0346 23.1573 75.0121 22.9774 74.9219C22.7976 74.8318 22.6627 74.6966 22.6177 74.5163C22.2355 72.8038 21.8083 71.3843 21.3362 70.2576C20.864 69.1535 20.2795 68.2747 19.5825 67.6438C18.8856 67.0129 18.0312 66.5847 17.042 66.3594C16.0527 66.1341 14.8386 65.9989 13.4447 65.9989C12.478 65.9989 11.5337 66.1341 10.6568 66.382C9.78002 66.6298 9.0156 67.0129 8.34112 67.5311C7.68912 68.0494 7.14953 68.6803 6.76732 69.4464C6.38512 70.2125 6.18277 71.0688 6.18277 72.0602L6.20525 71.9025Z" fill="#A8696E"/>
<path d="M50.5638 104.125C44.4485 104.125 39.6597 102.39 36.1749 98.9195C32.7125 95.4495 30.9813 90.2443 30.9813 83.3267C30.9813 80.3524 31.4759 77.6259 32.4427 75.1247C33.4095 72.6236 34.7809 70.4829 36.5121 68.6803C38.2433 66.8777 40.3117 65.4806 42.7398 64.4892C45.1455 63.4977 47.8209 63.002 50.7437 63.002C53.6665 63.002 56.207 63.4752 58.5677 64.4441C60.9509 65.413 62.9968 66.765 64.7055 68.5226C66.4142 70.2801 67.7632 72.3982 68.7075 74.8769C69.6517 77.3555 70.1464 80.127 70.1464 83.169C70.1464 86.5715 69.6293 89.5684 68.5951 92.1596C67.5608 94.7509 66.1669 96.9366 64.3908 98.7167C62.6146 100.497 60.5462 101.849 58.163 102.75C55.7799 103.674 53.2618 104.125 50.5638 104.125ZM50.7887 101.646C52.6997 101.646 54.3859 101.128 55.8473 100.114C57.3087 99.0998 58.5452 97.7703 59.557 96.1029C60.5687 94.4355 61.3331 92.5202 61.8727 90.357C62.3898 88.1938 62.6596 85.9406 62.6596 83.5971C62.6596 81.2537 62.4572 79.1131 62.0526 76.9274C61.6479 74.7417 60.9734 72.8038 60.0291 71.0913C59.0848 69.4014 57.8483 68.0269 56.297 66.9903C54.7456 65.9538 52.8346 65.4356 50.5638 65.4356C48.4505 65.4356 46.6294 65.9538 45.1005 67.0129C43.5492 68.0719 42.3127 69.4464 41.3234 71.1364C40.3567 72.8264 39.6372 74.7642 39.1651 76.9274C38.6929 79.0905 38.4681 81.2988 38.4681 83.507C38.4681 85.8504 38.6704 88.1262 39.0527 90.3119C39.4349 92.4976 40.1093 94.4129 41.0311 96.0804C41.9754 97.7478 43.2345 99.0773 44.8082 100.091C46.382 101.105 48.383 101.623 50.8112 101.623L50.7887 101.646Z" fill="#A8696E"/>
<path d="M86.8061 95.4494C86.8061 96.7789 86.941 97.8379 87.2108 98.6491C87.4806 99.4603 87.9077 100.069 88.4698 100.519C89.0319 100.97 89.7289 101.285 90.5832 101.488C91.4151 101.691 92.4043 101.826 93.5284 101.894C93.7982 101.894 94.0006 102.007 94.113 102.209C94.2254 102.435 94.2929 102.66 94.2929 102.953C94.2929 103.178 94.2254 103.404 94.0905 103.606C93.9556 103.809 93.7533 103.899 93.4835 103.899C91.3701 103.899 89.5715 103.832 88.0876 103.674C86.5813 103.516 85.1424 103.449 83.7259 103.449C82.2421 103.449 80.7807 103.516 79.3418 103.674C77.9029 103.832 76.4865 103.899 75.1375 103.899C74.9127 103.899 74.7328 103.809 74.6204 103.606C74.508 103.404 74.4405 103.201 74.4181 102.953C74.4181 102.728 74.4405 102.502 74.553 102.277C74.6654 102.052 74.8677 101.939 75.1375 101.894C76.2392 101.781 77.116 101.623 77.8354 101.421C78.5324 101.218 79.072 100.902 79.4767 100.474C79.8589 100.046 80.1287 99.4828 80.2636 98.7843C80.3985 98.0858 80.4659 97.1394 80.4659 95.9677V74.1107C80.4659 73.2545 80.4659 72.3982 80.3985 71.542C80.3535 70.6857 80.2411 69.8971 80.0163 69.176C79.7915 68.455 79.4992 67.8466 79.072 67.3283C78.6673 66.8101 78.1052 66.4946 77.4083 66.3369C76.9811 66.2693 76.5314 66.1791 76.0593 66.0665C75.5872 65.9763 75.1375 65.9088 74.7103 65.8637C74.4855 65.8637 74.3056 65.7736 74.1932 65.5708C74.0808 65.368 74.0134 65.1652 74.0134 64.9173C74.0134 64.6694 74.0808 64.4666 74.1932 64.2638C74.3056 64.0611 74.4855 63.9709 74.7103 63.9709C76.0368 63.9709 77.2284 64.0385 78.2851 64.1512C79.3418 64.2638 80.5559 64.3314 81.9723 64.3314C84.3105 64.2864 86.244 64.2188 87.7953 64.1287C89.3242 64.0385 90.808 63.9935 92.202 63.9935C93.7533 63.9935 95.2821 64.1512 96.7884 64.4892C98.2948 64.8272 99.6213 65.3905 100.768 66.1792C101.915 66.9903 102.836 68.0269 103.533 69.3112C104.23 70.5956 104.59 72.1729 104.59 74.0657C104.59 76.2514 104.163 78.0765 103.308 79.5187C102.454 80.9608 101.263 82.1325 99.7787 83.0338C98.2723 83.9351 96.5187 84.5886 94.4952 84.9942C92.4717 85.3998 90.2909 85.6476 87.9527 85.7152C87.5705 85.7152 87.2782 85.7828 87.0984 85.8955C86.9185 86.0081 86.8286 86.3461 86.8286 86.8869V95.4494H86.8061ZM86.8061 82.7409C86.8061 83.0563 86.896 83.2591 87.0759 83.3267C87.2557 83.4168 87.5705 83.4394 88.0426 83.4394C89.9537 83.4394 91.55 83.2817 92.8315 82.9887C94.113 82.6958 95.1472 82.2001 95.9341 81.5241C96.721 80.8481 97.2606 79.9468 97.5978 78.8652C97.9351 77.7836 98.0925 76.4091 98.0925 74.7642C98.0925 71.6772 97.5304 69.4915 96.4062 68.2297C95.2821 66.9678 93.3261 66.3369 90.5607 66.3369C89.0319 66.3369 88.0426 66.5397 87.548 66.9227C87.0534 67.3058 86.8061 68.117 86.8061 69.3338V82.7409Z" fill="#A8696E"/>
<path d="M137.01 82.0874C137.482 82.0874 137.82 82.0198 138.044 81.8621C138.269 81.7043 138.359 81.3889 138.359 80.9157V72.939C138.359 71.7223 138.292 70.6857 138.157 69.8295C138.022 68.9732 137.752 68.2747 137.37 67.7114C136.988 67.1706 136.426 66.7425 135.706 66.4495C134.987 66.1566 134.02 65.9764 132.806 65.8862C132.581 65.8862 132.401 65.7736 132.289 65.5708C132.176 65.368 132.109 65.1426 132.109 64.8948C132.109 64.6469 132.176 64.4441 132.289 64.2413C132.401 64.0385 132.581 63.9484 132.806 63.9484C134.043 63.9484 135.481 64.016 137.078 64.1287C138.674 64.2413 140.18 64.3089 141.574 64.3089C142.384 64.3089 143.171 64.3089 143.89 64.2413C144.609 64.1963 145.306 64.1737 146.003 64.1287C146.678 64.0836 147.375 64.061 148.072 64.016C148.769 63.9709 149.533 63.9484 150.343 63.9484C150.567 63.9484 150.747 64.0385 150.837 64.2413C150.927 64.4441 150.972 64.6469 150.95 64.8948C150.927 65.1426 150.86 65.3454 150.747 65.5708C150.635 65.7961 150.477 65.8862 150.275 65.8862C149.061 65.9764 148.094 66.1341 147.352 66.3819C146.61 66.6298 146.048 67.0354 145.666 67.5537C145.284 68.0719 145.014 68.7704 144.902 69.6267C144.789 70.4829 144.722 71.5871 144.722 72.9165V95.8776C144.722 97.1619 144.789 98.1759 144.947 98.897C145.104 99.618 145.374 100.181 145.801 100.587C146.228 100.993 146.79 101.285 147.532 101.466C148.274 101.646 149.218 101.781 150.388 101.894C150.612 101.939 150.815 102.052 150.95 102.254C151.084 102.457 151.152 102.66 151.152 102.908C151.152 103.156 151.084 103.359 150.95 103.561C150.815 103.764 150.612 103.854 150.343 103.854C148.791 103.854 147.285 103.787 145.868 103.629C144.452 103.471 143.036 103.404 141.642 103.404C140.158 103.404 138.629 103.471 137.055 103.629C135.481 103.787 134.043 103.854 132.761 103.854C132.536 103.854 132.356 103.764 132.244 103.561C132.131 103.359 132.064 103.156 132.064 102.908C132.064 102.66 132.131 102.457 132.244 102.254C132.356 102.052 132.536 101.939 132.761 101.894C133.975 101.781 134.942 101.623 135.661 101.466C136.381 101.285 136.943 100.993 137.347 100.587C137.752 100.181 138.022 99.618 138.157 98.897C138.292 98.1759 138.359 97.1619 138.359 95.8776V86.1433C138.359 85.1294 137.932 84.6111 137.078 84.6111H119.609C118.754 84.6111 118.327 84.9942 118.327 85.7828V95.855C118.327 97.1394 118.394 98.1534 118.552 98.8745C118.709 99.5955 118.979 100.159 119.406 100.564C119.811 100.97 120.395 101.263 121.137 101.443C121.879 101.623 122.824 101.759 123.993 101.871C124.218 101.916 124.42 102.029 124.555 102.232C124.69 102.435 124.757 102.637 124.757 102.885C124.757 103.133 124.69 103.336 124.555 103.539C124.42 103.742 124.218 103.832 123.948 103.832C122.396 103.832 120.89 103.764 119.474 103.606C118.057 103.449 116.641 103.381 115.224 103.381C113.741 103.381 112.212 103.449 110.638 103.606C109.064 103.764 107.625 103.832 106.344 103.832C106.119 103.832 105.939 103.742 105.827 103.539C105.714 103.336 105.647 103.133 105.647 102.885C105.647 102.637 105.714 102.435 105.827 102.232C105.939 102.029 106.119 101.916 106.344 101.871C107.558 101.759 108.525 101.601 109.244 101.443C109.963 101.285 110.525 100.97 110.93 100.564C111.335 100.159 111.605 99.5955 111.74 98.8745C111.874 98.1534 111.942 97.1394 111.942 95.855V72.894C111.942 71.6772 111.874 70.6407 111.74 69.7844C111.605 68.9282 111.335 68.2297 110.953 67.6663C110.57 67.103 110.008 66.6974 109.289 66.4045C108.569 66.1116 107.603 65.9313 106.389 65.8412C106.164 65.8412 105.984 65.7285 105.872 65.5257C105.759 65.3229 105.692 65.0976 105.692 64.8497C105.692 64.6018 105.759 64.399 105.872 64.1963C105.984 63.9935 106.164 63.9033 106.389 63.9033C107.625 63.9033 109.064 63.9709 110.66 64.0836C112.257 64.1963 113.763 64.2638 115.157 64.2638C115.966 64.2638 116.753 64.2638 117.473 64.1963C118.192 64.1512 118.889 64.1287 119.586 64.0836C120.283 64.0385 120.958 64.016 121.654 63.9709C122.351 63.9259 123.116 63.9033 123.925 63.9033C124.15 63.9033 124.33 63.9935 124.42 64.1963C124.51 64.399 124.555 64.6018 124.532 64.8497C124.532 65.075 124.442 65.3004 124.33 65.5257C124.218 65.751 124.06 65.8412 123.858 65.8412C122.644 65.9313 121.677 66.089 120.935 66.3369C120.193 66.5847 119.631 66.9903 119.249 67.5086C118.867 68.0269 118.597 68.7254 118.484 69.5816C118.372 70.4379 118.305 71.542 118.305 72.8714V80.8481C118.305 81.6367 118.732 82.0198 119.586 82.0198H137.01V82.0874Z" fill="#A8696E"/>
<path d="M160.347 72.939C160.347 71.7223 160.28 70.6857 160.145 69.8295C160.01 68.9732 159.74 68.2747 159.358 67.7114C158.976 67.1706 158.414 66.7425 157.694 66.4496C156.975 66.1566 156.008 65.9764 154.794 65.8862C154.569 65.8862 154.389 65.7736 154.277 65.5708C154.165 65.368 154.097 65.1426 154.097 64.8948C154.097 64.6469 154.165 64.4441 154.277 64.2413C154.389 64.0385 154.569 63.9484 154.794 63.9484C156.031 63.9484 157.47 64.016 159.066 64.1287C160.662 64.2413 162.168 64.3089 163.562 64.3089C164.372 64.3089 165.159 64.3089 165.878 64.2413C166.598 64.1963 167.295 64.1737 167.991 64.1287C168.688 64.0836 169.363 64.0611 170.06 64.016C170.757 63.9709 171.521 63.9484 172.331 63.9484C172.555 63.9484 172.735 64.0385 172.825 64.2413C172.915 64.4441 172.96 64.6469 172.938 64.8948C172.915 65.1426 172.848 65.3454 172.735 65.5708C172.623 65.7961 172.466 65.8862 172.263 65.8862C171.049 65.9764 170.082 66.1341 169.34 66.382C168.599 66.6298 168.036 67.0354 167.654 67.5537C167.272 68.0719 167.002 68.7704 166.89 69.6267C166.777 70.4829 166.71 71.5871 166.71 72.9165V95.8776C166.71 97.162 166.777 98.1759 166.935 98.897C167.092 99.618 167.384 100.181 167.789 100.564C168.194 100.947 168.778 101.24 169.52 101.421C170.262 101.601 171.207 101.736 172.376 101.849C172.6 101.894 172.803 102.007 172.938 102.232C173.073 102.457 173.14 102.683 173.14 102.908C173.14 103.133 173.073 103.359 172.938 103.561C172.803 103.764 172.6 103.854 172.331 103.854C170.779 103.854 169.273 103.787 167.857 103.629C166.44 103.471 165.024 103.404 163.607 103.404C162.123 103.404 160.595 103.471 159.021 103.629C157.447 103.787 156.008 103.854 154.727 103.854C154.502 103.854 154.322 103.764 154.21 103.561C154.097 103.359 154.03 103.156 154.03 102.908C154.03 102.66 154.097 102.457 154.21 102.232C154.322 102.007 154.502 101.894 154.727 101.849C155.941 101.736 156.907 101.578 157.627 101.421C158.346 101.24 158.908 100.97 159.313 100.564C159.718 100.181 159.988 99.618 160.123 98.897C160.257 98.1759 160.325 97.162 160.325 95.8776V72.9165L160.347 72.939Z" fill="#A8696E"/>
<path d="M205.066 64.1512C205.38 64.1512 205.673 64.1963 205.965 64.2639C206.257 64.354 206.37 64.6469 206.28 65.2102C206.19 65.6384 206.167 66.1341 206.167 66.6749V68.3198C206.167 70.0774 206.235 71.7223 206.347 73.232C206.347 73.3897 206.257 73.5249 206.077 73.615C205.898 73.7052 205.695 73.7728 205.47 73.7953C205.246 73.7953 205.021 73.7953 204.796 73.7052C204.571 73.6376 204.459 73.4798 204.414 73.232C204.144 71.6997 203.874 70.528 203.604 69.6492C203.334 68.793 202.952 68.1395 202.458 67.6889C201.963 67.2382 201.311 66.9678 200.479 66.8326C199.647 66.7199 198.546 66.6298 197.174 66.6073H193.667C192.655 66.6073 191.846 66.6073 191.239 66.6749C190.632 66.7199 190.16 66.8551 189.8 67.1255C189.44 67.3734 189.215 67.779 189.103 68.3198C188.99 68.8606 188.923 69.6267 188.923 70.5956V80.8481C188.923 81.3889 189.013 81.7269 189.215 81.8621C189.418 81.9973 189.597 82.0649 189.8 82.0649C191.598 82.0649 193.015 81.9973 194.027 81.8395C195.061 81.6818 195.848 81.3889 196.365 80.9833C196.882 80.5777 197.242 80.0369 197.422 79.3609C197.601 78.7075 197.736 77.8287 197.849 76.7922C197.894 76.5668 198.006 76.3866 198.208 76.2739C198.411 76.1613 198.613 76.0937 198.86 76.0937C199.108 76.0937 199.31 76.1613 199.512 76.2739C199.715 76.3866 199.805 76.5668 199.805 76.7922C199.805 77.4231 199.805 77.9639 199.737 78.4596C199.692 78.9553 199.67 79.4285 199.625 79.9243C199.58 80.42 199.535 80.9157 199.512 81.4565C199.467 81.9748 199.445 82.6057 199.445 83.3042C199.445 84.4759 199.512 85.535 199.625 86.5039C199.737 87.4503 199.805 88.622 199.805 89.9965C199.805 90.1993 199.715 90.3345 199.512 90.4471C199.31 90.5373 199.108 90.5823 198.86 90.5598C198.636 90.5598 198.411 90.4922 198.208 90.3795C198.006 90.2894 197.894 90.1091 197.849 89.8838C197.736 88.7572 197.579 87.8333 197.422 87.1348C197.264 86.4363 196.904 85.8955 196.365 85.535C195.848 85.1744 195.061 84.904 194.027 84.7688C192.992 84.6336 191.576 84.566 189.8 84.566C189.597 84.566 189.418 84.6336 189.215 84.7688C189.013 84.904 188.923 85.197 188.923 85.6251V93.3088C188.923 94.5707 189.013 95.6297 189.193 96.5085C189.373 97.3873 189.62 98.1083 189.98 98.6717C190.339 99.235 190.767 99.6856 191.261 100.024C191.778 100.362 192.363 100.609 193.082 100.767C193.622 100.88 194.251 100.97 194.926 101.038C195.6 101.105 196.32 101.128 197.062 101.128C198.006 101.128 198.883 101.083 199.692 101.015C200.502 100.947 201.131 100.812 201.558 100.655C202.345 100.384 203.02 100.091 203.582 99.7758C204.144 99.4603 204.616 99.0547 205.021 98.5365C205.403 98.0182 205.74 97.3873 205.987 96.6212C206.235 95.855 206.437 94.8861 206.594 93.7144C206.639 93.4891 206.774 93.3314 206.999 93.2412C207.224 93.1736 207.494 93.1286 207.764 93.1286C208.033 93.1286 208.281 93.1962 208.506 93.3088C208.73 93.4215 208.798 93.5792 208.775 93.782C208.573 95.4269 208.416 96.9592 208.258 98.3787C208.101 99.7983 208.033 101.263 208.078 102.75C208.078 102.863 208.011 103.043 207.854 103.246C207.696 103.471 207.336 103.561 206.752 103.561H185.528C184.044 103.561 182.605 103.606 181.166 103.674C179.728 103.742 178.469 103.832 177.344 103.899C177.03 103.899 176.805 103.809 176.647 103.629C176.49 103.449 176.4 103.246 176.355 102.975C176.31 102.728 176.355 102.48 176.535 102.277C176.692 102.052 176.94 101.939 177.299 101.894C178.244 101.781 179.031 101.601 179.705 101.398C180.357 101.195 180.919 100.88 181.346 100.452C181.773 100.046 182.088 99.5279 182.313 98.897C182.538 98.2661 182.628 97.4774 182.628 96.486V73.9305C182.628 73.0742 182.605 72.2405 182.538 71.4068C182.47 70.5956 182.358 69.8295 182.156 69.131C181.953 68.4324 181.661 67.8241 181.256 67.3058C180.852 66.7875 180.29 66.4496 179.593 66.2468C179.165 66.1341 178.716 66.0214 178.244 65.9538C177.772 65.8862 177.322 65.8186 176.895 65.7736C176.67 65.7736 176.49 65.6834 176.378 65.4806C176.265 65.2778 176.198 65.075 176.198 64.8272C176.198 64.5793 176.265 64.3765 176.378 64.1737C176.49 63.9709 176.67 63.8808 176.895 63.8808C178.221 63.8808 179.413 63.9259 180.469 63.9935C181.526 64.0836 182.74 64.1061 184.157 64.1061H205.133L205.066 64.1512Z" fill="#A8696E"/>
<path d="M232.944 73.9981C232.944 73.1418 232.922 72.3081 232.854 71.4744C232.787 70.6632 232.675 69.8971 232.472 69.1986C232.27 68.5001 231.978 67.8917 231.573 67.3734C231.168 66.8551 230.606 66.5171 229.909 66.3144C229.482 66.2017 229.032 66.089 228.56 66.0214C228.088 65.9538 227.638 65.8862 227.211 65.8412C226.986 65.8412 226.807 65.751 226.694 65.5482C226.582 65.3454 226.514 65.1426 226.514 64.8948C226.514 64.6469 226.582 64.4441 226.694 64.2413C226.807 64.0385 226.986 63.9484 227.211 63.9484C228.538 63.9484 229.729 63.9935 230.786 64.0611C231.843 64.1512 233.057 64.1737 234.473 64.1737C236.069 64.1737 237.643 64.1512 239.217 64.0836C240.768 64.016 242.365 63.9709 243.961 63.9484C247.153 63.9484 250.099 64.4667 252.819 65.4806C255.517 66.4946 257.855 67.9142 259.811 69.7394C261.767 71.5645 263.296 73.7277 264.398 76.2514C265.499 78.7751 266.061 81.5241 266.061 84.4759C266.061 87.7657 265.544 90.6049 264.488 93.0384C263.431 95.472 261.992 97.4774 260.171 99.0998C258.35 100.722 256.169 101.916 253.651 102.705C251.133 103.494 248.412 103.877 245.49 103.877C243.736 103.877 242.027 103.809 240.386 103.651C238.722 103.494 237.239 103.426 235.912 103.426C235.103 103.426 234.361 103.426 233.686 103.449C233.034 103.449 232.382 103.494 231.753 103.539C231.123 103.584 230.494 103.629 229.842 103.719C229.19 103.787 228.493 103.877 227.706 103.944C227.481 103.989 227.279 103.899 227.144 103.719C227.009 103.516 226.919 103.313 226.874 103.066C226.829 102.84 226.874 102.592 227.009 102.367C227.144 102.142 227.369 102.007 227.683 101.961C228.628 101.849 229.414 101.669 230.089 101.466C230.741 101.24 231.303 100.947 231.73 100.564C232.157 100.181 232.472 99.6631 232.675 99.0322C232.877 98.4013 232.967 97.5901 232.967 96.5761V74.0206L232.944 73.9981ZM239.329 92.5202C239.329 94.4805 239.419 96.0353 239.599 97.1845C239.779 98.3337 240.116 99.2124 240.633 99.7983C241.128 100.384 241.87 100.767 242.814 100.947C243.759 101.128 245.04 101.218 246.636 101.218C248.39 101.218 250.009 100.857 251.47 100.114C252.932 99.3702 254.191 98.2886 255.247 96.869C256.304 95.4494 257.113 93.6919 257.698 91.6188C258.282 89.5458 258.575 87.1573 258.575 84.4759C258.575 81.6142 258.282 79.0905 257.698 76.8823C257.113 74.6741 256.147 72.8264 254.843 71.3167C253.516 69.807 251.762 68.6803 249.559 67.9142C247.356 67.1481 244.658 66.765 241.465 66.765C240.678 66.765 240.139 66.9002 239.824 67.1706C239.509 67.441 239.352 67.9818 239.352 68.7479V92.5427L239.329 92.5202Z" fill="#A8696E"/>
<path d="M298.527 64.1512C298.841 64.1512 299.134 64.1963 299.426 64.2639C299.718 64.354 299.831 64.6469 299.741 65.2102C299.651 65.6384 299.628 66.1341 299.628 66.6749V68.3198C299.628 70.0774 299.696 71.7223 299.808 73.232C299.808 73.3897 299.718 73.5249 299.538 73.615C299.359 73.7052 299.156 73.7728 298.931 73.7953C298.707 73.7953 298.482 73.7953 298.257 73.7052C298.032 73.6376 297.92 73.4798 297.875 73.232C297.605 71.6997 297.335 70.528 297.065 69.6492C296.796 68.793 296.413 68.1395 295.919 67.6889C295.424 67.2382 294.772 66.9678 293.94 66.8326C293.108 66.7199 292.007 66.6298 290.635 66.6073H287.128C286.116 66.6073 285.307 66.6073 284.7 66.6749C284.093 66.7199 283.621 66.8551 283.261 67.1255C282.901 67.3734 282.676 67.779 282.564 68.3198C282.451 68.8606 282.384 69.6267 282.384 70.5956V80.8481C282.384 81.3889 282.474 81.7269 282.676 81.8621C282.879 81.9973 283.058 82.0649 283.261 82.0649C285.059 82.0649 286.476 81.9973 287.488 81.8395C288.522 81.6818 289.309 81.3889 289.826 80.9833C290.343 80.5777 290.703 80.0369 290.883 79.3609C291.062 78.7075 291.197 77.8287 291.31 76.7922C291.355 76.5668 291.467 76.3866 291.669 76.2739C291.872 76.1613 292.074 76.0937 292.321 76.0937C292.569 76.0937 292.771 76.1613 292.973 76.2739C293.176 76.3866 293.266 76.5668 293.266 76.7922C293.266 77.4231 293.266 77.9639 293.198 78.4596C293.153 78.9553 293.131 79.4285 293.086 79.9243C293.041 80.42 292.996 80.9157 292.973 81.4565C292.928 81.9748 292.906 82.6057 292.906 83.3042C292.906 84.4759 292.973 85.535 293.086 86.5039C293.198 87.4503 293.266 88.622 293.266 89.9965C293.266 90.1993 293.176 90.3345 292.973 90.4471C292.771 90.5373 292.569 90.5823 292.321 90.5598C292.097 90.5598 291.872 90.4922 291.669 90.3795C291.467 90.2894 291.355 90.1091 291.31 89.8838C291.197 88.7572 291.04 87.8333 290.883 87.1348C290.725 86.4363 290.365 85.8955 289.826 85.535C289.309 85.1744 288.522 84.904 287.488 84.7688C286.453 84.6336 285.037 84.566 283.261 84.566C283.058 84.566 282.879 84.6336 282.676 84.7688C282.474 84.904 282.384 85.197 282.384 85.6251V93.3088C282.384 94.5707 282.474 95.6297 282.654 96.5085C282.834 97.3873 283.081 98.1083 283.441 98.6717C283.8 99.235 284.228 99.6856 284.722 100.024C285.239 100.362 285.824 100.609 286.543 100.767C287.083 100.88 287.712 100.97 288.387 101.038C289.061 101.105 289.781 101.128 290.523 101.128C291.467 101.128 292.344 101.083 293.153 101.015C293.963 100.947 294.592 100.812 295.019 100.655C295.806 100.384 296.481 100.091 297.043 99.7758C297.605 99.4603 298.077 99.0547 298.482 98.5365C298.864 98.0182 299.201 97.3873 299.448 96.6212C299.696 95.855 299.898 94.8861 300.056 93.7144C300.1 93.4891 300.235 93.3314 300.46 93.2412C300.685 93.1736 300.955 93.1286 301.225 93.1286C301.494 93.1286 301.742 93.1962 301.967 93.3088C302.191 93.4215 302.259 93.5792 302.236 93.782C302.034 95.4269 301.877 96.9592 301.719 98.3787C301.562 99.7983 301.494 101.263 301.539 102.75C301.539 102.863 301.472 103.043 301.315 103.246C301.157 103.471 300.797 103.561 300.213 103.561H278.989C277.505 103.561 276.066 103.606 274.627 103.674C273.189 103.742 271.93 103.832 270.805 103.899C270.491 103.899 270.266 103.809 270.108 103.629C269.951 103.449 269.861 103.246 269.816 102.975C269.771 102.728 269.816 102.48 269.996 102.277C270.153 102.052 270.401 101.939 270.76 101.894C271.705 101.781 272.492 101.601 273.166 101.398C273.818 101.195 274.38 100.88 274.807 100.452C275.234 100.046 275.549 99.5279 275.774 98.897C275.999 98.2661 276.089 97.4774 276.089 96.486V73.9305C276.089 73.0742 276.066 72.2405 275.999 71.4068C275.931 70.5956 275.819 69.8295 275.617 69.131C275.414 68.4324 275.122 67.8241 274.717 67.3058C274.313 66.7875 273.751 66.4496 273.054 66.2468C272.626 66.1341 272.177 66.0214 271.705 65.9538C271.233 65.8862 270.783 65.8186 270.356 65.7736C270.131 65.7736 269.951 65.6834 269.839 65.4806C269.726 65.2778 269.659 65.075 269.659 64.8272C269.659 64.5793 269.726 64.3765 269.839 64.1737C269.951 63.9709 270.131 63.8808 270.356 63.8808C271.682 63.8808 272.874 63.9259 273.93 63.9935C274.987 64.0836 276.201 64.1061 277.618 64.1061H298.594L298.527 64.1512Z" fill="#A8696E"/>
<path d="M310.645 71.3167C310.645 70.1449 310.555 69.2211 310.375 68.5676C310.195 67.9142 309.903 67.3959 309.498 67.0129C309.094 66.6523 308.554 66.3819 307.88 66.2467C307.228 66.1116 306.373 65.9989 305.361 65.9313C305.137 65.9313 304.934 65.8186 304.799 65.6158C304.665 65.413 304.597 65.1877 304.597 64.9398C304.597 64.692 304.665 64.4892 304.799 64.2864C304.934 64.0836 305.114 63.9935 305.361 63.9935H306.935C307.677 63.9935 308.487 63.9935 309.386 64.016C310.285 64.016 311.207 64.0611 312.151 64.0836C313.096 64.0836 313.972 64.1512 314.759 64.1963C315.546 64.2638 316.198 64.3314 316.715 64.4216C317.232 64.5117 317.547 64.6469 317.615 64.8046L329.486 92.7455C329.553 92.8582 329.643 92.9258 329.71 92.9258C329.823 92.9258 329.935 92.8582 330.003 92.7455L341.694 64.8046C341.739 64.6469 342.233 64.5117 343.178 64.4216C344.122 64.3314 345.246 64.2413 346.505 64.1963C347.764 64.1512 349.068 64.0836 350.372 64.0611C351.676 64.016 352.71 63.9935 353.497 63.9935C353.722 63.9935 353.902 64.0836 353.992 64.2864C354.082 64.4892 354.127 64.692 354.127 64.9398C354.127 65.1877 354.059 65.3905 353.947 65.5933C353.834 65.7961 353.677 65.9088 353.475 65.9538C352.148 66.1791 351.114 66.4045 350.372 66.6073C349.63 66.8101 349.091 67.1706 348.731 67.6889C348.371 68.2071 348.169 68.9958 348.079 70.0097C347.989 71.0237 347.966 72.4658 347.966 74.3361V95.9452C347.966 97.2295 348.034 98.2435 348.191 98.9646C348.349 99.6856 348.641 100.249 349.046 100.632C349.45 101.015 350.035 101.308 350.777 101.488C351.519 101.669 352.463 101.804 353.632 101.916C353.857 101.961 354.059 102.074 354.194 102.299C354.329 102.525 354.396 102.75 354.396 102.975C354.396 103.201 354.329 103.426 354.194 103.629C354.059 103.832 353.857 103.922 353.587 103.922C352.036 103.922 350.529 103.854 349.113 103.697C347.697 103.539 346.28 103.471 344.864 103.471C343.38 103.471 341.851 103.539 340.277 103.697C338.703 103.854 337.265 103.922 335.983 103.922C335.758 103.922 335.578 103.832 335.466 103.629C335.354 103.426 335.286 103.223 335.286 102.975C335.286 102.728 335.354 102.525 335.466 102.299C335.578 102.074 335.758 101.961 335.983 101.916C337.197 101.804 338.164 101.646 338.883 101.488C339.603 101.308 340.165 101.038 340.57 100.632C340.974 100.249 341.244 99.6856 341.379 98.9646C341.514 98.2435 341.581 97.2295 341.581 95.9452V74.2009C341.581 73.9305 341.424 73.7953 341.109 73.8178C340.794 73.8178 340.592 73.953 340.525 74.2009L332.116 94.0524C331.531 95.4269 330.947 96.9141 330.385 98.5365C329.823 100.159 329.261 101.781 328.721 103.426C328.676 103.539 328.586 103.629 328.406 103.697C328.226 103.764 328.047 103.787 327.844 103.787C327.642 103.787 327.462 103.764 327.282 103.697C327.102 103.629 326.99 103.561 326.967 103.426L314.107 73.9079C314.04 73.7051 313.86 73.5925 313.613 73.5474C313.365 73.5024 313.23 73.6376 313.23 73.953V95.7424C313.23 97.1394 313.343 98.2435 313.59 99.0322C313.837 99.8208 314.175 100.407 314.624 100.79C315.074 101.173 315.636 101.443 316.288 101.578C316.94 101.714 317.727 101.849 318.626 101.961C318.829 102.007 318.964 102.119 319.076 102.322C319.166 102.525 319.211 102.728 319.211 102.975C319.211 103.223 319.166 103.426 319.076 103.629C318.986 103.832 318.806 103.922 318.581 103.922C317.727 103.922 316.783 103.854 315.749 103.697C314.714 103.539 313.5 103.471 312.106 103.471C310.622 103.471 309.318 103.539 308.172 103.697C307.025 103.854 306.058 103.922 305.272 103.922C305.069 103.922 304.912 103.832 304.799 103.629C304.687 103.426 304.62 103.223 304.597 102.975C304.597 102.75 304.62 102.525 304.732 102.322C304.844 102.119 305.024 102.007 305.249 101.961C306.261 101.849 307.115 101.714 307.79 101.578C308.464 101.443 309.026 101.173 309.431 100.79C309.836 100.407 310.128 99.8208 310.308 99.0322C310.488 98.2435 310.577 97.1619 310.577 95.7424V71.3167H310.645Z" fill="#A8696E"/>
<path d="M395.225 88.0586C395.225 90.6049 394.933 92.8807 394.371 94.8861C393.809 96.8916 392.909 98.6041 391.673 99.9786C390.436 101.376 388.84 102.435 386.839 103.178C384.861 103.922 382.432 104.282 379.6 104.282C376.767 104.282 374.496 104.012 372.495 103.471C370.494 102.93 368.83 102.052 367.526 100.857C366.222 99.6631 365.256 98.1309 364.626 96.2381C363.997 94.3453 363.682 92.047 363.682 89.3655V72.9616C363.682 71.7448 363.614 70.7083 363.479 69.852C363.345 68.9958 363.075 68.2972 362.693 67.7339C362.31 67.1931 361.748 66.765 361.029 66.4721C360.309 66.1791 359.343 65.9989 358.129 65.9088C357.904 65.9088 357.724 65.7961 357.611 65.5933C357.499 65.3905 357.432 65.1652 357.432 64.9173C357.432 64.6694 357.499 64.4666 357.611 64.2638C357.724 64.0611 357.904 63.9709 358.129 63.9709C359.365 63.9709 360.804 64.0385 362.4 64.1737C363.997 64.3089 365.503 64.3765 366.897 64.3765C367.706 64.3765 368.493 64.3765 369.213 64.3089C369.932 64.2638 370.629 64.2188 371.326 64.1737C372.023 64.1286 372.697 64.0611 373.394 64.0385C374.091 63.9935 374.856 63.9709 375.665 63.9709C375.89 63.9709 376.07 64.0611 376.16 64.2638C376.25 64.4666 376.295 64.6694 376.272 64.9173C376.25 65.1652 376.182 65.368 376.07 65.5933C375.957 65.8186 375.8 65.9088 375.598 65.9088C374.384 65.9989 373.417 66.1566 372.675 66.4045C371.933 66.6523 371.371 67.0579 370.989 67.5762C370.606 68.0945 370.337 68.793 370.224 69.6492C370.112 70.5055 370.044 71.6096 370.044 72.939V88.9374C370.044 90.5823 370.269 92.1371 370.696 93.6243C371.124 95.1114 371.776 96.3958 372.652 97.5225C373.529 98.6491 374.631 99.5279 375.957 100.181C377.284 100.835 378.835 101.173 380.634 101.173C384.411 101.173 387.289 100.136 389.29 98.0407C391.268 95.9452 392.28 92.6328 392.28 88.1037V75.9134C392.28 74.967 392.28 74.0431 392.212 73.1193C392.168 72.1954 392.123 71.3167 392.033 70.4829C391.943 69.6492 391.83 68.9958 391.673 68.5226C391.471 67.8691 391.268 67.3509 391.066 67.0354C390.841 66.6974 390.594 66.4495 390.279 66.3143C389.964 66.1791 389.582 66.0665 389.11 66.044C388.638 66.044 388.053 65.9764 387.356 65.9088C387.154 65.9088 387.019 65.7961 386.929 65.5933C386.839 65.3905 386.794 65.1652 386.794 64.9173C386.794 64.6694 386.839 64.4666 386.907 64.2638C386.974 64.0611 387.131 63.9709 387.379 63.9709C388.323 63.9709 389.312 64.0385 390.369 64.1737C391.426 64.3089 392.482 64.3765 393.584 64.3765C394.596 64.3765 395.607 64.3089 396.619 64.1737C397.631 64.0385 398.755 63.9709 400.014 63.9709C400.239 63.9709 400.419 64.0611 400.531 64.2638C400.644 64.4666 400.711 64.6694 400.711 64.9173C400.711 65.1652 400.644 65.368 400.531 65.5933C400.419 65.8186 400.239 65.9088 400.014 65.9088C399.317 65.9989 398.755 66.044 398.35 66.044C397.946 66.044 397.608 66.1566 397.316 66.3143C397.024 66.4721 396.799 66.7199 396.597 67.0354C396.372 67.3734 396.147 67.8691 395.855 68.5226C395.652 68.9958 395.517 69.6267 395.428 70.4604C395.338 71.2716 395.27 72.1504 395.225 73.0742C395.18 73.9981 395.18 74.9219 395.203 75.8458C395.203 76.7922 395.225 77.6033 395.225 78.3019V88.0361V88.0586Z" fill="#A8696E"/>
<path d="M424.161 95.9226C424.161 97.207 424.228 98.221 424.34 98.9421C424.453 99.6631 424.723 100.226 425.127 100.609C425.532 100.993 426.117 101.285 426.858 101.466C427.6 101.646 428.59 101.781 429.849 101.894C430.074 101.939 430.276 102.052 430.411 102.277C430.546 102.502 430.613 102.728 430.613 102.953C430.613 103.178 430.546 103.404 430.411 103.606C430.276 103.809 430.074 103.899 429.804 103.899C428.252 103.899 426.746 103.832 425.33 103.674C423.913 103.516 422.497 103.449 421.08 103.449C419.597 103.449 418.068 103.516 416.494 103.674C414.92 103.832 413.481 103.899 412.2 103.899C411.975 103.899 411.795 103.809 411.683 103.606C411.57 103.404 411.503 103.201 411.503 102.953C411.503 102.705 411.57 102.502 411.683 102.277C411.795 102.052 411.975 101.939 412.2 101.894C413.414 101.781 414.381 101.623 415.1 101.466C415.819 101.285 416.381 101.015 416.786 100.609C417.191 100.226 417.461 99.6631 417.596 98.9421C417.73 98.221 417.798 97.207 417.798 95.9226V69.9196C417.798 68.4775 417.438 67.5762 416.719 67.1931C415.999 66.8326 414.785 66.6298 413.077 66.6298C411.638 66.6298 410.446 66.7425 409.502 66.9453C408.557 67.1481 407.793 67.5537 407.186 68.117C406.579 68.6803 406.084 69.4464 405.725 70.4379C405.342 71.4068 405.005 72.6912 404.69 74.2459C404.645 74.4713 404.533 74.629 404.308 74.7191C404.083 74.8093 403.881 74.8318 403.656 74.8093C403.431 74.8093 403.252 74.7191 403.072 74.6065C402.892 74.4938 402.802 74.3586 402.802 74.2009C402.959 72.7588 403.049 71.2716 403.072 69.7844C403.072 68.2747 403.004 66.7875 402.802 65.3004C402.802 64.8722 403.072 64.5793 403.611 64.4216C404.151 64.2639 404.758 64.1963 405.432 64.1963H436.706C437.448 64.1963 438.055 64.2639 438.55 64.3991C439.044 64.5343 439.269 64.8272 439.269 65.2553C439.202 65.7285 439.134 66.2918 439.067 66.9903C438.999 67.6889 438.977 68.4324 438.977 69.2436C438.977 70.0548 438.999 70.9111 439.067 71.7673C439.134 72.6236 439.202 73.4573 439.269 74.2234C439.269 74.3812 439.179 74.5163 438.977 74.6741C438.774 74.8093 438.572 74.8994 438.325 74.8994C438.077 74.8994 437.875 74.8994 437.65 74.8093C437.425 74.7417 437.313 74.5839 437.268 74.3361C437.043 72.7813 436.728 71.4969 436.324 70.5055C435.942 69.514 435.424 68.7254 434.772 68.1621C434.12 67.5987 433.334 67.2157 432.412 66.9903C431.49 66.765 430.366 66.6749 429.084 66.6749C427.331 66.6749 426.072 66.8551 425.285 67.2382C424.498 67.6213 424.116 68.5226 424.116 69.9647V95.9677L424.161 95.9226Z" fill="#A8696E"/>
<path d="M472.858 82.0874C473.33 82.0874 473.668 82.0198 473.892 81.8621C474.117 81.7043 474.207 81.3889 474.207 80.9157V72.939C474.207 71.7223 474.14 70.6857 474.005 69.8295C473.87 68.9732 473.6 68.2747 473.218 67.7114C472.836 67.1706 472.274 66.7425 471.554 66.4495C470.835 66.1566 469.868 65.9764 468.654 65.8862C468.429 65.8862 468.249 65.7736 468.137 65.5708C468.024 65.368 467.957 65.1426 467.957 64.8948C467.957 64.6469 468.024 64.4441 468.137 64.2413C468.249 64.0385 468.429 63.9484 468.654 63.9484C469.891 63.9484 471.329 64.016 472.926 64.1287C474.522 64.2413 476.028 64.3089 477.422 64.3089C478.232 64.3089 479.019 64.3089 479.738 64.2413C480.457 64.1963 481.154 64.1737 481.851 64.1287C482.526 64.0836 483.223 64.061 483.92 64.016C484.617 63.9709 485.381 63.9484 486.191 63.9484C486.415 63.9484 486.595 64.0385 486.685 64.2413C486.775 64.4441 486.82 64.6469 486.798 64.8948C486.775 65.1426 486.708 65.3454 486.595 65.5708C486.483 65.7961 486.325 65.8862 486.123 65.8862C484.909 65.9764 483.942 66.1341 483.2 66.3819C482.458 66.6298 481.896 67.0354 481.514 67.5537C481.132 68.0719 480.862 68.7704 480.75 69.6267C480.637 70.4829 480.57 71.5871 480.57 72.9165V95.8776C480.57 97.1619 480.637 98.1759 480.795 98.897C480.952 99.618 481.222 100.181 481.649 100.587C482.076 100.993 482.638 101.285 483.38 101.466C484.122 101.646 485.066 101.781 486.236 101.894C486.46 101.939 486.663 102.052 486.798 102.254C486.933 102.457 487 102.66 487 102.908C487 103.156 486.933 103.359 486.798 103.561C486.663 103.764 486.46 103.854 486.191 103.854C484.639 103.854 483.133 103.787 481.716 103.629C480.3 103.471 478.884 103.404 477.49 103.404C476.006 103.404 474.477 103.471 472.903 103.629C471.329 103.787 469.891 103.854 468.609 103.854C468.384 103.854 468.204 103.764 468.092 103.561C467.979 103.359 467.912 103.156 467.912 102.908C467.912 102.66 467.979 102.457 468.092 102.254C468.204 102.052 468.384 101.939 468.609 101.894C469.823 101.781 470.79 101.623 471.509 101.466C472.229 101.285 472.791 100.993 473.196 100.587C473.6 100.181 473.87 99.618 474.005 98.897C474.14 98.1759 474.207 97.1619 474.207 95.8776V86.1433C474.207 85.1294 473.78 84.6111 472.926 84.6111H455.457C454.602 84.6111 454.175 84.9942 454.175 85.7828V95.855C454.175 97.1394 454.243 98.1534 454.4 98.8745C454.557 99.5955 454.827 100.159 455.254 100.564C455.659 100.97 456.243 101.263 456.985 101.443C457.727 101.623 458.672 101.759 459.841 101.871C460.066 101.916 460.268 102.029 460.403 102.232C460.538 102.435 460.605 102.637 460.605 102.885C460.605 103.133 460.538 103.336 460.403 103.539C460.268 103.742 460.066 103.832 459.796 103.832C458.244 103.832 456.738 103.764 455.322 103.606C453.905 103.449 452.489 103.381 451.072 103.381C449.589 103.381 448.06 103.449 446.486 103.606C444.912 103.764 443.473 103.832 442.192 103.832C441.967 103.832 441.787 103.742 441.675 103.539C441.562 103.336 441.495 103.133 441.495 102.885C441.495 102.637 441.562 102.435 441.675 102.232C441.787 102.029 441.967 101.916 442.192 101.871C443.406 101.759 444.373 101.601 445.092 101.443C445.811 101.285 446.374 100.97 446.778 100.564C447.183 100.159 447.453 99.5955 447.588 98.8745C447.723 98.1534 447.79 97.1394 447.79 95.855V72.894C447.79 71.6772 447.723 70.6407 447.588 69.7844C447.453 68.9282 447.183 68.2297 446.801 67.6663C446.418 67.103 445.856 66.6974 445.137 66.4045C444.418 66.1116 443.451 65.9313 442.237 65.8412C442.012 65.8412 441.832 65.7285 441.72 65.5257C441.607 65.3229 441.54 65.0976 441.54 64.8497C441.54 64.6018 441.607 64.399 441.72 64.1963C441.832 63.9935 442.012 63.9033 442.237 63.9033C443.473 63.9033 444.912 63.9709 446.508 64.0836C448.105 64.1963 449.611 64.2638 451.005 64.2638C451.814 64.2638 452.601 64.2638 453.321 64.1963C454.04 64.1512 454.737 64.1287 455.434 64.0836C456.131 64.0385 456.806 64.016 457.503 63.9709C458.199 63.9259 458.964 63.9033 459.773 63.9033C459.998 63.9033 460.178 63.9935 460.268 64.1963C460.358 64.399 460.403 64.6018 460.38 64.8497C460.38 65.075 460.29 65.3004 460.178 65.5257C460.066 65.751 459.908 65.8412 459.706 65.8412C458.492 65.9313 457.525 66.089 456.783 66.3369C456.041 66.5847 455.479 66.9903 455.097 67.5086C454.715 68.0269 454.445 68.7254 454.332 69.5816C454.22 70.4379 454.153 71.542 454.153 72.8714V80.8481C454.153 81.6367 454.58 82.0198 455.434 82.0198H472.858V82.0874Z" fill="#A8696E"/>
<path d="M207.393 1.19095C207.393 1.73367 207.318 2.06533 207.181 2.201C207.045 2.32161 206.712 2.38191 206.197 2.38191C205.682 2.38191 205.348 2.32161 205.212 2.201C205.076 2.0804 205 1.74874 205 1.19095C205 0.633166 205.076 0.346734 205.212 0.211055C205.348 0.0753769 205.682 0 206.197 0C206.712 0 207.045 0.0753769 207.181 0.211055C207.318 0.346734 207.393 0.678392 207.393 1.19095ZM218.21 38.2915C214.483 37.2513 211.544 35.5327 209.408 33.1508C207.272 30.7538 206.197 28.0854 206.197 25.1005C206.197 22.8392 206.894 20.9397 208.302 19.402C209.711 17.8492 211.59 17.0804 213.953 17.0804C216.316 17.0804 218.27 17.9246 219.679 19.5829C221.088 21.2563 221.785 23.4724 221.785 26.2161C221.785 27.407 221.573 28.4774 221.148 29.4121C220.724 30.3467 220.088 31.1457 219.24 31.809C218.391 32.4724 217.816 32.7889 217.528 32.7889C217.285 32.7889 217.058 32.6231 216.861 32.3065C216.664 31.9899 216.558 31.6432 216.558 31.2965C216.558 31.0553 216.634 30.8894 216.786 30.8141C218.225 30.0754 218.952 29.3216 218.952 28.5528C218.952 27.8593 218.709 27.3166 218.225 26.9246C217.74 26.5327 216.543 26.0653 214.619 25.5528C213.18 25.1608 212.453 24.3166 212.453 23.0201C212.453 22.1608 212.65 21.407 213.044 20.7889C212.801 20.2915 212.377 20.0503 211.771 20.0503C210.802 20.0503 210.029 20.4874 209.439 21.3769C208.848 22.2513 208.56 23.5025 208.56 25.1156C208.56 28.6583 210.105 31.5678 213.211 33.8442C216.301 36.1206 220.285 37.2663 225.132 37.2663H231.101C231.495 37.2663 231.692 37.6131 231.692 38.3065C231.692 39 231.495 39.3467 231.101 39.3467H225.132C225.132 39.3467 220.618 39.196 218.194 38.3065L218.21 38.2915ZM213.286 7.05528C213.286 7.59799 213.211 7.92965 213.074 8.06533C212.938 8.18593 212.605 8.24623 212.09 8.24623C211.574 8.24623 211.241 8.18593 211.105 8.06533C210.969 7.94472 210.893 7.61306 210.893 7.05528C210.893 6.49749 210.953 6.21106 211.105 6.07538C211.256 5.9397 211.574 5.86432 212.09 5.86432C212.605 5.86432 212.938 5.9397 213.074 6.07538C213.211 6.21106 213.286 6.54271 213.286 7.05528ZM219.255 12.995C219.255 13.5075 219.179 13.8392 219.028 13.9749C218.876 14.1106 218.528 14.1859 217.982 14.1859C217.437 14.1859 217.134 14.1256 216.998 13.9749C216.861 13.8392 216.786 13.5075 216.786 12.995C216.786 12.4824 216.846 12.1206 216.998 11.9849C217.134 11.8643 217.467 11.804 217.982 11.804C218.497 11.804 218.846 11.8492 219.012 11.9548C219.179 12.0603 219.255 12.407 219.255 12.995ZM264.761 8.98492C264.761 11.3668 263.928 13.2362 262.261 14.6231C260.595 16.01 258.383 16.7035 255.657 16.7035C254.43 16.7035 253.354 16.4925 252.43 16.0704C251.491 15.6482 250.703 15.0151 250.037 14.1709C249.37 13.3266 249.052 12.7538 249.052 12.4221C249.052 12.196 249.188 11.9849 249.461 11.7889C249.734 11.593 250.037 11.4874 250.355 11.4874C250.673 11.4874 250.885 11.593 250.991 11.7889C251.657 13.1759 252.415 13.8693 253.263 13.8693C253.99 13.8693 254.551 13.6281 254.945 13.1307C255.339 12.6332 255.778 11.4422 256.247 9.57286C256.626 8.1407 257.49 7.41709 258.868 7.41709C259.732 7.41709 260.489 7.61306 261.11 8.00502C261.61 7.76382 261.852 7.34171 261.852 6.73869C261.852 5.77387 261.398 5.00502 260.489 4.41709C259.58 3.82915 258.323 3.54271 256.702 3.54271C253.172 3.54271 250.249 5.0804 247.961 8.17085C245.674 11.2462 244.523 15.2111 244.523 20.0352V25.9749C244.523 26.3668 244.174 26.5628 243.477 26.5628C242.78 26.5628 242.432 26.3668 242.432 25.9749V20.0352C242.432 15.2261 241.281 11.2915 238.993 8.18593C236.706 5.0804 233.782 3.54271 230.222 3.54271C228.632 3.54271 227.39 3.84422 226.496 4.43216C225.602 5.0201 225.148 5.78894 225.148 6.73869C225.148 7.32663 225.39 7.74874 225.89 8.00502C226.511 7.61306 227.253 7.41709 228.132 7.41709C229.419 7.41709 230.268 8.1407 230.677 9.57286C231.192 11.4724 231.661 12.6784 232.055 13.1608C232.449 13.6432 233.01 13.8844 233.737 13.8844C234.54 13.8844 235.267 13.191 235.933 11.804C236.039 11.608 236.251 11.5025 236.57 11.5025C236.888 11.5025 237.191 11.608 237.478 11.8191C237.766 12.0302 237.903 12.2412 237.903 12.4673C237.903 12.7387 237.569 13.2965 236.918 14.1558C236.251 15.0151 235.464 15.6482 234.524 16.0704C233.585 16.4925 232.525 16.7035 231.328 16.7035C228.571 16.7035 226.344 16.01 224.663 14.6231C222.981 13.2362 222.148 11.3518 222.148 8.98492C222.148 6.61809 222.936 4.74874 224.496 3.31658C226.072 1.8995 227.965 1.17588 230.207 1.17588C233.191 1.17588 235.888 2.24623 238.296 4.37186C240.705 6.49749 242.417 9.42211 243.462 13.1307C244.477 9.43719 246.189 6.52764 248.597 4.38693C251.006 2.24623 253.687 1.17588 256.687 1.17588C258.959 1.17588 260.868 1.88442 262.413 3.28643C263.973 4.70352 264.746 6.58794 264.746 8.96985L264.761 8.98492ZM225.148 18.8744C225.148 19.3869 225.072 19.7186 224.935 19.8543C224.799 19.9899 224.466 20.0653 223.951 20.0653C223.436 20.0653 223.102 20.005 222.966 19.8543C222.83 19.7035 222.754 19.3869 222.754 18.8744C222.754 18.3618 222.815 18.0301 222.966 17.8945C223.118 17.7588 223.436 17.6834 223.951 17.6834C224.466 17.6834 224.799 17.7588 224.935 17.8945C225.072 18.0301 225.148 18.3618 225.148 18.8744ZM231.055 24.7387C231.055 25.2814 230.98 25.6131 230.843 25.7487C230.707 25.8693 230.374 25.9296 229.859 25.9296C229.344 25.9296 229.041 25.8844 228.889 25.7789C228.738 25.6734 228.662 25.3266 228.662 24.7387C228.662 24.2261 228.723 23.8945 228.874 23.7588C229.01 23.6231 229.344 23.5477 229.859 23.5477C230.374 23.5477 230.707 23.6231 230.843 23.7588C230.98 23.8945 231.055 24.2261 231.055 24.7387ZM237.024 30.6482C237.024 31.1608 236.948 31.4925 236.812 31.6281C236.676 31.7638 236.327 31.8392 235.752 31.8392C235.236 31.8392 234.903 31.7638 234.767 31.6281C234.631 31.4925 234.555 31.1608 234.555 30.6482C234.555 30.0603 234.631 29.7136 234.782 29.608C234.934 29.5025 235.252 29.4573 235.752 29.4573C236.297 29.4573 236.645 29.5176 236.797 29.6382C236.948 29.7588 237.024 30.0905 237.024 30.6482ZM247.219 40.5226C247.219 40.8693 247.067 41.201 246.749 41.5176C246.431 41.8342 246.098 42 245.719 42C245.568 42 245.31 41.9095 244.932 41.7437C244.356 41.4724 243.871 41.3367 243.477 41.3367C243.053 41.3367 242.568 41.4724 242.023 41.7437C241.675 41.9246 241.417 42 241.235 42C240.887 42 240.554 41.8342 240.251 41.5176C239.933 41.201 239.781 40.8693 239.781 40.5226C239.781 40.3568 239.872 40.0854 240.039 39.7387C240.281 39.1658 240.417 38.6834 240.417 38.2915C240.417 37.8995 240.296 37.4322 240.039 36.8744C239.857 36.4975 239.781 36.2261 239.781 36.0603C239.781 35.7136 239.933 35.3819 240.251 35.0502C240.569 34.7337 240.887 34.5678 241.235 34.5678C241.402 34.5678 241.675 34.6583 242.023 34.8241C242.568 35.0955 243.053 35.2312 243.477 35.2312C243.871 35.2312 244.356 35.0955 244.932 34.8241C245.31 34.6583 245.568 34.5678 245.719 34.5678C246.098 34.5678 246.431 34.7337 246.749 35.0653C247.067 35.397 247.219 35.7286 247.219 36.0452C247.219 36.2261 247.128 36.4975 246.961 36.8593C246.689 37.402 246.552 37.8693 246.552 38.2764C246.552 38.6834 246.689 39.1508 246.961 39.7236C247.128 40.0704 247.219 40.3266 247.219 40.5075V40.5226ZM252.369 30.6482C252.369 31.1608 252.294 31.4925 252.157 31.6281C252.021 31.7638 251.688 31.8392 251.173 31.8392C250.658 31.8392 250.324 31.7638 250.188 31.6281C250.052 31.4925 249.976 31.1608 249.976 30.6482C249.976 30.1357 250.037 29.7739 250.188 29.6382C250.324 29.5176 250.658 29.4573 251.173 29.4573C251.688 29.4573 251.991 29.5025 252.142 29.608C252.294 29.7136 252.369 30.0603 252.369 30.6482ZM261.852 39.3317H255.884C255.49 39.3317 255.293 38.9849 255.293 38.2915C255.293 37.598 255.49 37.2513 255.884 37.2513H261.852C266.685 37.2513 270.639 36.1055 273.759 33.8291C276.865 31.5528 278.425 28.6432 278.425 25.1005C278.425 23.5176 278.122 22.2814 277.531 21.392C276.94 20.5025 276.168 20.0503 275.213 20.0503C274.638 20.0503 274.199 20.3065 273.865 20.7889C274.32 21.3769 274.532 22.1307 274.532 23.0201C274.532 24.3015 273.805 25.1457 272.366 25.5528C270.457 26.0804 269.245 26.5327 268.76 26.9246C268.275 27.3166 268.033 27.8593 268.033 28.5528C268.033 29.3518 268.73 30.0905 270.124 30.7839C270.32 30.8894 270.427 31.1005 270.427 31.4171C270.427 31.7337 270.32 32.0502 270.124 32.3518C269.927 32.6533 269.699 32.804 269.457 32.804C269.154 32.804 268.594 32.4724 267.745 31.8241C266.897 31.1608 266.261 30.3618 265.837 29.4271C265.412 28.4925 265.2 27.4221 265.2 26.2312C265.2 23.4573 265.897 21.2412 267.276 19.5829C268.654 17.9246 270.548 17.0955 272.971 17.0955C275.395 17.0955 277.228 17.8794 278.667 19.4322C280.091 21 280.818 22.8844 280.818 25.1156C280.818 28.0854 279.743 30.7688 277.592 33.1658C275.441 35.5628 272.517 37.2663 268.806 38.3065C266.291 39.1206 261.868 39.3467 261.868 39.3467L261.852 39.3317ZM258.338 24.7387C258.338 25.3266 258.262 25.6734 258.111 25.7789C257.959 25.8844 257.641 25.9296 257.141 25.9296C256.596 25.9296 256.247 25.8693 256.096 25.7487C255.945 25.6281 255.869 25.2965 255.869 24.7387C255.869 24.1809 255.929 23.8945 256.081 23.7588C256.232 23.6231 256.566 23.5477 257.141 23.5477C257.656 23.5477 257.99 23.6231 258.126 23.7588C258.262 23.8945 258.338 24.2261 258.338 24.7387ZM264.231 18.8744C264.231 19.3869 264.155 19.7186 264.019 19.8543C263.882 19.9899 263.549 20.0653 263.034 20.0653C262.519 20.0653 262.186 20.005 262.049 19.8543C261.913 19.7035 261.837 19.3869 261.837 18.8744C261.837 18.3618 261.898 18.0301 262.049 17.8945C262.201 17.7588 262.519 17.6834 263.034 17.6834C263.549 17.6834 263.882 17.7588 264.019 17.8945C264.155 18.0301 264.231 18.3618 264.231 18.8744ZM270.139 12.995C270.139 13.5075 270.063 13.8392 269.927 13.9749C269.79 14.1106 269.457 14.1859 268.942 14.1859C268.427 14.1859 268.094 14.1256 267.957 13.9749C267.821 13.8241 267.745 13.5075 267.745 12.995C267.745 12.4824 267.806 12.1206 267.957 11.9849C268.094 11.8643 268.427 11.804 268.942 11.804C269.457 11.804 269.79 11.8643 269.927 11.9849C270.063 12.1055 270.139 12.4372 270.139 12.995ZM276.107 7.05528C276.107 7.59799 276.031 7.92965 275.895 8.06533C275.759 8.18593 275.426 8.24623 274.91 8.24623C274.395 8.24623 274.047 8.18593 273.88 8.0804C273.714 7.97487 273.638 7.62814 273.638 7.05528C273.638 6.54271 273.714 6.21106 273.865 6.07538C274.017 5.9397 274.365 5.86432 274.91 5.86432C275.456 5.86432 275.759 5.9397 275.895 6.07538C276.031 6.21106 276.107 6.54271 276.107 7.05528ZM282 1.19095C282 1.73367 281.924 2.06533 281.788 2.201C281.652 2.32161 281.318 2.38191 280.803 2.38191C280.288 2.38191 279.955 2.32161 279.819 2.201C279.682 2.0804 279.607 1.74874 279.607 1.19095C279.607 0.633166 279.667 0.346734 279.819 0.211055C279.955 0.0753769 280.288 0 280.803 0C281.318 0 281.652 0.0753769 281.788 0.211055C281.924 0.346734 282 0.678392 282 1.19095Z" fill="#A8696E"/>
<path d="M279.607 165.809C279.607 165.266 279.682 164.935 279.819 164.799C279.955 164.678 280.288 164.618 280.803 164.618C281.318 164.618 281.652 164.678 281.788 164.799C281.924 164.92 282 165.251 282 165.809C282 166.367 281.924 166.653 281.788 166.789C281.652 166.925 281.318 167 280.803 167C280.288 167 279.955 166.925 279.819 166.789C279.682 166.653 279.607 166.322 279.607 165.809ZM268.79 128.709C272.517 129.749 275.456 131.467 277.592 133.849C279.728 136.246 280.803 138.915 280.803 141.899C280.803 144.161 280.106 146.06 278.698 147.598C277.289 149.151 275.41 149.92 273.047 149.92C270.684 149.92 268.73 149.075 267.321 147.417C265.912 145.744 265.215 143.528 265.215 140.784C265.215 139.593 265.427 138.523 265.852 137.588C266.276 136.653 266.912 135.854 267.76 135.191C268.609 134.528 269.184 134.211 269.472 134.211C269.715 134.211 269.942 134.377 270.139 134.693C270.336 135.01 270.442 135.357 270.442 135.704C270.442 135.945 270.366 136.111 270.214 136.186C268.775 136.925 268.048 137.678 268.048 138.447C268.048 139.141 268.291 139.683 268.775 140.075C269.26 140.467 270.457 140.935 272.381 141.447C273.82 141.839 274.547 142.683 274.547 143.98C274.547 144.839 274.35 145.593 273.956 146.211C274.199 146.709 274.623 146.95 275.229 146.95C276.198 146.95 276.971 146.513 277.561 145.623C278.152 144.749 278.44 143.497 278.44 141.884C278.44 138.342 276.895 135.432 273.789 133.156C270.699 130.879 266.715 129.734 261.868 129.734H255.899C255.505 129.734 255.308 129.387 255.308 128.693C255.308 128 255.505 127.653 255.899 127.653H261.868C261.868 127.653 266.382 127.804 268.806 128.693L268.79 128.709ZM273.714 159.945C273.714 159.402 273.789 159.07 273.926 158.935C274.062 158.814 274.395 158.754 274.91 158.754C275.426 158.754 275.759 158.814 275.895 158.935C276.031 159.055 276.107 159.387 276.107 159.945C276.107 160.503 276.047 160.789 275.895 160.925C275.744 161.06 275.426 161.136 274.91 161.136C274.395 161.136 274.062 161.06 273.926 160.925C273.789 160.789 273.714 160.457 273.714 159.945ZM267.745 154.005C267.745 153.492 267.821 153.161 267.972 153.025C268.124 152.889 268.472 152.814 269.018 152.814C269.563 152.814 269.866 152.874 270.002 153.025C270.139 153.161 270.214 153.492 270.214 154.005C270.214 154.518 270.154 154.879 270.002 155.015C269.866 155.136 269.533 155.196 269.018 155.196C268.503 155.196 268.154 155.151 267.988 155.045C267.821 154.94 267.745 154.593 267.745 154.005ZM222.239 158.015C222.239 155.633 223.072 153.764 224.739 152.377C226.405 150.99 228.617 150.296 231.343 150.296C232.57 150.296 233.646 150.508 234.57 150.93C235.509 151.352 236.297 151.985 236.963 152.829C237.63 153.673 237.948 154.246 237.948 154.578C237.948 154.804 237.812 155.015 237.539 155.211C237.266 155.407 236.963 155.513 236.645 155.513C236.327 155.513 236.115 155.407 236.009 155.211C235.343 153.824 234.585 153.131 233.737 153.131C233.01 153.131 232.449 153.372 232.055 153.869C231.661 154.367 231.222 155.558 230.753 157.427C230.374 158.859 229.51 159.583 228.132 159.583C227.268 159.583 226.511 159.387 225.89 158.995C225.39 159.236 225.148 159.658 225.148 160.261C225.148 161.226 225.602 161.995 226.511 162.583C227.42 163.171 228.677 163.457 230.298 163.457C233.828 163.457 236.751 161.92 239.039 158.829C241.326 155.754 242.477 151.789 242.477 146.965V141.025C242.477 140.633 242.826 140.437 243.523 140.437C244.22 140.437 244.568 140.633 244.568 141.025V146.965C244.568 151.774 245.719 155.709 248.007 158.814C250.294 161.92 253.218 163.457 256.778 163.457C258.368 163.457 259.61 163.156 260.504 162.568C261.398 161.98 261.852 161.211 261.852 160.261C261.852 159.673 261.61 159.251 261.11 158.995C260.489 159.387 259.747 159.583 258.868 159.583C257.581 159.583 256.732 158.859 256.323 157.427C255.808 155.528 255.339 154.322 254.945 153.839C254.551 153.357 253.99 153.116 253.263 153.116C252.46 153.116 251.733 153.809 251.067 155.196C250.961 155.392 250.749 155.497 250.43 155.497C250.112 155.497 249.809 155.392 249.522 155.181C249.234 154.97 249.097 154.759 249.097 154.533C249.097 154.261 249.431 153.704 250.082 152.844C250.749 151.985 251.536 151.352 252.476 150.93C253.415 150.508 254.475 150.296 255.672 150.296C258.429 150.296 260.656 150.99 262.337 152.377C264.019 153.764 264.852 155.648 264.852 158.015C264.852 160.382 264.064 162.251 262.504 163.683C260.928 165.1 259.035 165.824 256.793 165.824C253.809 165.824 251.112 164.754 248.704 162.628C246.295 160.503 244.583 157.578 243.538 153.869C242.523 157.563 240.811 160.472 238.403 162.613C235.994 164.754 233.313 165.824 230.313 165.824C228.041 165.824 226.132 165.116 224.587 163.714C223.027 162.296 222.254 160.412 222.254 158.03L222.239 158.015ZM261.852 148.141C261.852 147.628 261.928 147.296 262.065 147.161C262.201 147.025 262.534 146.95 263.049 146.95C263.564 146.95 263.898 147.01 264.034 147.161C264.17 147.312 264.246 147.628 264.246 148.141C264.246 148.653 264.185 148.985 264.034 149.121C263.882 149.256 263.564 149.332 263.049 149.332C262.534 149.332 262.201 149.256 262.065 149.121C261.928 148.985 261.852 148.653 261.852 148.141ZM255.945 142.261C255.945 141.719 256.02 141.387 256.157 141.251C256.293 141.131 256.626 141.07 257.141 141.07C257.656 141.07 257.959 141.116 258.111 141.221C258.262 141.327 258.338 141.673 258.338 142.261C258.338 142.774 258.277 143.106 258.126 143.241C257.99 143.377 257.656 143.452 257.141 143.452C256.626 143.452 256.293 143.377 256.157 143.241C256.02 143.106 255.945 142.774 255.945 142.261ZM249.976 136.352C249.976 135.839 250.052 135.508 250.188 135.372C250.324 135.236 250.673 135.161 251.248 135.161C251.764 135.161 252.097 135.236 252.233 135.372C252.369 135.508 252.445 135.839 252.445 136.352C252.445 136.94 252.369 137.286 252.218 137.392C252.066 137.497 251.748 137.543 251.248 137.543C250.703 137.543 250.355 137.482 250.203 137.362C250.052 137.241 249.976 136.91 249.976 136.352ZM239.781 126.477C239.781 126.131 239.933 125.799 240.251 125.482C240.569 125.166 240.902 125 241.281 125C241.432 125 241.69 125.09 242.068 125.256C242.644 125.528 243.129 125.663 243.523 125.663C243.947 125.663 244.432 125.528 244.977 125.256C245.325 125.075 245.583 125 245.765 125C246.113 125 246.446 125.166 246.749 125.482C247.067 125.799 247.219 126.131 247.219 126.477C247.219 126.643 247.128 126.915 246.961 127.261C246.719 127.834 246.583 128.317 246.583 128.709C246.583 129.101 246.704 129.568 246.961 130.126C247.143 130.503 247.219 130.774 247.219 130.94C247.219 131.286 247.067 131.618 246.749 131.95C246.431 132.266 246.113 132.432 245.765 132.432C245.598 132.432 245.325 132.342 244.977 132.176C244.432 131.905 243.947 131.769 243.523 131.769C243.129 131.769 242.644 131.905 242.068 132.176C241.69 132.342 241.432 132.432 241.281 132.432C240.902 132.432 240.569 132.266 240.251 131.935C239.933 131.603 239.781 131.271 239.781 130.955C239.781 130.774 239.872 130.503 240.039 130.141C240.311 129.598 240.448 129.131 240.448 128.724C240.448 128.317 240.311 127.849 240.039 127.276C239.872 126.93 239.781 126.673 239.781 126.492V126.477ZM234.631 136.352C234.631 135.839 234.706 135.508 234.843 135.372C234.979 135.236 235.312 135.161 235.827 135.161C236.342 135.161 236.676 135.236 236.812 135.372C236.948 135.508 237.024 135.839 237.024 136.352C237.024 136.864 236.963 137.226 236.812 137.362C236.676 137.482 236.342 137.543 235.827 137.543C235.312 137.543 235.009 137.497 234.858 137.392C234.706 137.286 234.631 136.94 234.631 136.352ZM225.148 127.668H231.116C231.51 127.668 231.707 128.015 231.707 128.709C231.707 129.402 231.51 129.749 231.116 129.749H225.148C220.315 129.749 216.361 130.894 213.241 133.171C210.135 135.447 208.575 138.357 208.575 141.899C208.575 143.482 208.878 144.719 209.469 145.608C210.06 146.497 210.832 146.95 211.787 146.95C212.362 146.95 212.801 146.693 213.135 146.211C212.68 145.623 212.468 144.869 212.468 143.98C212.468 142.698 213.195 141.854 214.634 141.447C216.543 140.92 217.755 140.467 218.24 140.075C218.725 139.683 218.967 139.141 218.967 138.447C218.967 137.648 218.27 136.91 216.876 136.216C216.68 136.111 216.573 135.899 216.573 135.583C216.573 135.266 216.68 134.95 216.876 134.648C217.073 134.347 217.301 134.196 217.543 134.196C217.846 134.196 218.406 134.528 219.255 135.176C220.103 135.839 220.739 136.638 221.163 137.573C221.588 138.508 221.8 139.578 221.8 140.769C221.8 143.543 221.103 145.759 219.724 147.417C218.346 149.075 216.452 149.905 214.029 149.905C211.605 149.905 209.772 149.121 208.333 147.568C206.909 146 206.182 144.116 206.182 141.884C206.182 138.915 207.257 136.231 209.408 133.834C211.559 131.437 214.483 129.734 218.194 128.693C220.709 127.879 225.132 127.653 225.132 127.653L225.148 127.668ZM228.662 142.261C228.662 141.673 228.738 141.327 228.889 141.221C229.041 141.116 229.359 141.07 229.859 141.07C230.404 141.07 230.753 141.131 230.904 141.251C231.055 141.372 231.131 141.704 231.131 142.261C231.131 142.819 231.071 143.106 230.919 143.241C230.768 143.377 230.434 143.452 229.859 143.452C229.344 143.452 229.01 143.377 228.874 143.241C228.738 143.106 228.662 142.774 228.662 142.261ZM222.769 148.141C222.769 147.628 222.845 147.296 222.981 147.161C223.118 147.025 223.451 146.95 223.966 146.95C224.481 146.95 224.814 147.01 224.951 147.161C225.087 147.312 225.163 147.628 225.163 148.141C225.163 148.653 225.102 148.985 224.951 149.121C224.799 149.256 224.481 149.332 223.966 149.332C223.451 149.332 223.118 149.256 222.981 149.121C222.845 148.985 222.769 148.653 222.769 148.141ZM216.861 154.005C216.861 153.492 216.937 153.161 217.073 153.025C217.21 152.889 217.543 152.814 218.058 152.814C218.573 152.814 218.906 152.874 219.043 153.025C219.179 153.176 219.255 153.492 219.255 154.005C219.255 154.518 219.194 154.879 219.043 155.015C218.906 155.136 218.573 155.196 218.058 155.196C217.543 155.196 217.21 155.136 217.073 155.015C216.937 154.894 216.861 154.563 216.861 154.005ZM210.893 159.945C210.893 159.402 210.969 159.07 211.105 158.935C211.241 158.814 211.574 158.754 212.09 158.754C212.605 158.754 212.953 158.814 213.12 158.92C213.286 159.025 213.362 159.372 213.362 159.945C213.362 160.457 213.286 160.789 213.135 160.925C212.983 161.06 212.635 161.136 212.09 161.136C211.544 161.136 211.241 161.06 211.105 160.925C210.969 160.789 210.893 160.457 210.893 159.945ZM205 165.809C205 165.266 205.076 164.935 205.212 164.799C205.348 164.678 205.682 164.618 206.197 164.618C206.712 164.618 207.045 164.678 207.181 164.799C207.318 164.92 207.393 165.251 207.393 165.809C207.393 166.367 207.333 166.653 207.181 166.789C207.045 166.925 206.712 167 206.197 167C205.682 167 205.348 166.925 205.212 166.789C205.076 166.653 205 166.322 205 165.809Z" fill="#A8696E"/>
<path d="M32 46.1699C167.144 44.7053 318.746 44.6827 453.89 46.1699C318.746 47.6571 167.144 47.6345 32 46.1699Z" fill="#A8696E"/>
<path d="M32 121.16C167.144 119.695 318.746 119.672 453.89 121.16C318.746 122.647 167.144 122.624 32 121.16Z" fill="#A8696E"/>
</svg>
